<svg width="640" height="420" viewBox="0 0 640 420" fill="none" xmlns="http://www.w3.org/2000/svg">
  <defs>
    <linearGradient id="bg" x1="40" y1="20" x2="600" y2="400" gradientUnits="userSpaceOnUse">
      <stop stop-color="#182d62"/>
      <stop offset="1" stop-color="#0A1634"/>
    </linearGradient>
    <linearGradient id="pulse" x1="120" y1="80" x2="510" y2="320" gradientUnits="userSpaceOnUse">
      <stop stop-color="#5D84FF"/>
      <stop offset="1" stop-color="#74D5FF"/>
    </linearGradient>
  </defs>
  <rect x="10" y="10" width="620" height="400" rx="28" fill="url(#bg)" stroke="#2C4B95" stroke-width="2"/>
  <circle cx="170" cy="210" r="78" fill="#11275A"/>
  <path d="M145 210H195" stroke="url(#pulse)" stroke-width="16" stroke-linecap="round"/>
  <path d="M170 185L170 235" stroke="url(#pulse)" stroke-width="16" stroke-linecap="round"/>
  <rect x="270" y="118" width="220" height="34" rx="12" fill="#1A336C"/>
  <rect x="270" y="170" width="170" height="20" rx="10" fill="#2A4B96"/>
  <rect x="270" y="202" width="198" height="20" rx="10" fill="#2A4B96"/>
  <rect x="270" y="234" width="142" height="20" rx="10" fill="#2A4B96"/>
  <path d="M120 328C170 290 220 365 270 328C320 290 370 365 420 328C470 290 520 365 570 328" stroke="url(#pulse)" stroke-width="8" stroke-linecap="round"/>
</svg>
